<svg id="Media-nonactive"
  xmlns="http://www.w3.org/2000/svg" width="32" height="32" viewBox="0 0 32 32">
  <rect id="Rectangle_9135" data-name="Rectangle 9135" width="32" height="32" transform="translate(0 0)" fill="none"/>
  <g id="Group_18621" data-name="Group 18621" transform="translate(3.664 4.774)">
    <path id="Path_13315" data-name="Path 13315" d="M23.1,3a1.1,1.1,0,0,1,1.1,1.1v10H21.985V5.221H4.221V20.763l11.1-11.1,3.331,3.331v3.141L15.323,12.8,7.359,20.764h7.964v2.221H3.1a1.1,1.1,0,0,1-1.1-1.1V4.1A1.11,1.11,0,0,1,3.1,3Z" transform="translate(-2 -3)" fill="#596870"/>
    <path id="Path_13316" data-name="Path 13316" d="M33.2,26.428v3.331H36.53v2.221H33.2V35.31H30.979V31.979H27.648V29.758h3.331V26.428ZM18.766,17.545a2.221,2.221,0,1,1-2.221,2.221A2.221,2.221,0,0,1,18.766,17.545Z" transform="translate(-12.104 -13.104)" fill="#596870"/>
  </g>
</svg>
